<svg class="svg-icon" style="width: 1em; height: 1em;vertical-align: middle;fill: currentColor;overflow: hidden;" viewBox="0 0 1024 1024" version="1.1" xmlns="http://www.w3.org/2000/svg"><path d="M388.4 197.2v229.7H158.7V197.2h229.7m20-60H138.7c-22 0-40 18-40 40v269.7c0 22 18 40 40 40h269.7c22 0 40-18 40-40V177.2c0-22-18-40-40-40zM388.4 605.9v229.7H158.7V605.9h229.7m20-60H138.7c-22 0-40 18-40 40v269.7c0 22 18 40 40 40h269.7c22 0 40-18 40-40V585.9c0-22-18-40-40-40zM929 286H539.5c-16.6 0-30-13.4-30-30s13.4-30 30-30H929c16.6 0 30 13.4 30 30s-13.4 30-30 30zM929 413.8H539.5c-16.6 0-30-13.4-30-30s13.4-30 30-30H929c16.6 0 30 13.4 30 30s-13.4 30-30 30zM929 686.9H539.5c-16.6 0-30-13.4-30-30s13.4-30 30-30H929c16.6 0 30 13.4 30 30s-13.4 30-30 30zM929 814.7H539.5c-16.6 0-30-13.4-30-30s13.4-30 30-30H929c16.6 0 30 13.4 30 30s-13.4 30-30 30z"  /><path d="M252.1 406.2c-6.3 0-12.4-2.4-17-6.7l-46.7-43.4c-10.1-9.4-10.7-25.2-1.3-35.3 9.4-10.1 25.2-10.7 35.3-1.3l24.9 23.1 73.5-113.4c7.5-11.6 23-14.9 34.6-7.4 11.6 7.5 14.9 23 7.4 34.6L273 394.8c-4 6.2-10.6 10.3-17.9 11.2-1 0.1-2 0.2-3 0.2z"  /></svg>